<svg xmlns="http://www.w3.org/2000/svg" viewBox="0 0 512 512">
  <defs>
    <linearGradient id="g" x1="0" y1="0" x2="1" y2="1">
      <stop offset="0" stop-color="#0f172a"/>
      <stop offset="1" stop-color="#1e3a8a"/>
    </linearGradient>
  </defs>
  <rect width="512" height="512" rx="96" fill="url(#g)"/>
  <path d="M256 96c-66.3 0-120 53.7-120 120v40c0 66.3 53.7 120 120 120s120-53.7 120-120v-40c0-66.3-53.7-120-120-120zm72 160c0 39.8-32.2 72-72 72s-72-32.2-72-72v-40c0-39.8 32.2-72 72-72s72 32.2 72 72v40z" fill="#ffffff" fill-opacity="0.92"/>
  <path d="M160 400h192c17.7 0 32 14.3 32 32v16H128v-16c0-17.7 14.3-32 32-32z" fill="#ffffff" fill-opacity="0.92"/>
  <text x="256" y="314" text-anchor="middle" font-family="ui-sans-serif, system-ui, -apple-system, Segoe UI, Roboto, Helvetica, Arial" font-size="44" font-weight="700" fill="#ffffff">CMMC</text>
</svg>
